<?xml version="1.0" standalone="no"?>
<!DOCTYPE svg PUBLIC "-//W3C//DTD SVG 20010904//EN"
 "http://www.w3.org/TR/2001/REC-SVG-20010904/DTD/svg10.dtd">
<svg version="1.0" xmlns="http://www.w3.org/2000/svg"
 width="500.000000pt" height="500.000000pt" viewBox="0 0 500.000000 500.000000"
 preserveAspectRatio="xMidYMid meet">

<g transform="translate(0.000000,500.000000) scale(0.100000,-0.100000)"
fill="#000000" stroke="none">
<path d="M2757 4681 c-9 -4 -73 -99 -141 -211 -1345 -2233 -2034 -3377 -2044
-3397 -17 -31 -15 -41 9 -54 40 -21 709 -138 735 -128 11 4 69 95 138 220 66
118 193 345 282 504 89 160 244 439 346 620 101 182 233 419 294 527 60 108
110 193 112 188 2 -5 18 -95 36 -202 62 -358 254 -1480 307 -1797 30 -172 58
-320 64 -328 13 -18 107 -38 457 -98 291 -51 308 -51 308 -5 0 21 -16 101
-435 2180 -400 1987 -392 1950 -405 1965 -14 17 -41 23 -63 16z"/>
</g>
</svg>
